<svg xmlns="http://www.w3.org/2000/svg" viewBox="0 0 100 100">
  <circle cx="50" cy="50" r="45" stroke="#0050b3" stroke-width="2.5" fill="none" />
  
  <!-- Staff -->
  <line x1="45" y1="20" x2="45" y2="85" stroke="#0050b3" stroke-width="2.5" stroke-linecap="round" />
  <circle cx="45" cy="15" r="4" fill="none" stroke="#0050b3" stroke-width="2.5" />
  
  <!-- Wings -->
  <path d="M 40 25 C 20 20, 15 35, 15 35 C 20 30, 30 35, 40 30" fill="none" stroke="#0050b3" stroke-width="2.5" stroke-linecap="round" />
  <path d="M 50 25 C 70 20, 75 35, 75 35 C 70 30, 60 35, 50 30" fill="none" stroke="#0050b3" stroke-width="2.5" stroke-linecap="round" />
  
  <!-- Snakes -->
  <path d="M 32 75 C 45 75, 55 65, 45 55 C 35 45, 45 35, 55 35" fill="none" stroke="#0050b3" stroke-width="2.5" stroke-linecap="round" />
  <path d="M 58 75 C 45 75, 35 65, 45 55 C 55 45, 45 35, 35 35" fill="none" stroke="#0050b3" stroke-width="2.5" stroke-linecap="round" />

  <!-- Shield with checkmark -->
  <g transform="translate(55, 50)">
    <path d="M 0 5 L 18 -2 L 36 5 C 36 20, 18 35, 18 35 C 18 35, 0 20, 0 5 Z" fill="#ffffff" stroke="#0050b3" stroke-width="2.5" stroke-linejoin="round" />
    <path d="M 8 15 L 15 22 L 26 10" fill="none" stroke="#0050b3" stroke-width="3" stroke-linecap="round" stroke-linejoin="round" />
  </g>
</svg>
